<svg width="18" height="18" viewBox="0 0 18 18" fill="none" xmlns="http://www.w3.org/2000/svg">
<path d="M9.00122 4.90002C8.94559 4.90002 8.89122 4.91652 8.84497 4.94742C8.79872 4.97833 8.76267 5.02225 8.74138 5.07364C8.72009 5.12504 8.71452 5.18159 8.72538 5.23614C8.73623 5.2907 8.76301 5.34081 8.80235 5.38015C8.84168 5.41948 8.89179 5.44627 8.94635 5.45712C9.00091 5.46797 9.05746 5.4624 9.10885 5.44112C9.16024 5.41983 9.20417 5.38378 9.23507 5.33753C9.26598 5.29128 9.28247 5.2369 9.28247 5.18127C9.28247 5.10668 9.25284 5.03515 9.20009 4.9824C9.14735 4.92966 9.07581 4.90002 9.00122 4.90002Z" stroke="#0F241B" stroke-width="1.125" stroke-linecap="round" stroke-linejoin="round"/>
<path d="M9 13.0625V7.46252" stroke="#0F241B" stroke-width="1.125" stroke-miterlimit="10" stroke-linecap="round"/>
<path d="M0.5625 9C0.5625 11.2378 1.45145 13.3839 3.03379 14.9662C4.61612 16.5486 6.76224 17.4375 9 17.4375C11.2378 17.4375 13.3839 16.5486 14.9662 14.9662C16.5486 13.3839 17.4375 11.2378 17.4375 9C17.4375 6.76224 16.5486 4.61612 14.9662 3.03379C13.3839 1.45145 11.2378 0.5625 9 0.5625C6.76224 0.5625 4.61612 1.45145 3.03379 3.03379C1.45145 4.61612 0.5625 6.76224 0.5625 9V9Z" stroke="#0F241B" stroke-width="1.125" stroke-miterlimit="10"/>
</svg>
